# xmcd
# 
# Track frame offsets:
#     150
#     21810
#     35193
#     42410
#     50710
#     66028
#     70150
#     96443
#     123738
#     150653
#     155633
#     182438
#     195018
#     204483
#     222853
#     240850
# 
# Disc length: 4440
# 
# Revision: 7
# Processed by: cddbd v1.5.2PL0 Copyright (c) Steve Scherf et al.
# Submitted via: fre:ac v1.0.31
# 
DISCID=de115610
DTITLE=Queen - TQM - Live At Wembley Stadium [CD-2)
DYEAR=2003
DGENRE=Rock
TTITLE0=Love Of My Life
TTITLE1=Is This The World We Created
TTITLE2=(You're So Square) Baby I Don't Care
TTITLE3=Hello Mary Lou (Goodbye Heart)
TTITLE4=Tutti Frutti
TTITLE5=Gimme Some Lovin'
TTITLE6=Bohemian Rhapsody
TTITLE7=Hammer To Fall
TTITLE8=Crazy Little Thing Called Love
TTITLE9=Big Spender
TTITLE10=Radio Ga Ga
TTITLE11=We Will Rock You
TTITLE12=Friends Will Be Friends
TTITLE13=We Are The Champions
TTITLE14=God Save The Queen
TTITLE15=Data Track
EXTD=TQM
EXTT0=
EXTT1=
EXTT2=
EXTT3=
EXTT4=
EXTT5=
EXTT6=
EXTT7=
EXTT8=
EXTT9=
EXTT10=
EXTT11=
EXTT12=
EXTT13=
EXTT14=
EXTT15=
PLAYORDER=
